PathFileType	4	(X/Y/Z)	c:/Users/goper/Files/vsCode/490R/osim_files/A06/A06_Fast_02.trc
DataRate	CameraRate	NumFrames	NumMarkers	Units                	OrigDataRate	OrigDataStartFrame	OrigNumFrames
120.00	120.00	5	36	mm	120.0	575	1149
                Frame#	Time	LPSIS			LASIS			LTH1			LTH2			LTH3			LTH4			LLFE			LMFE			LSH1			LSH2			LSH3			LSH4			LLMAL			LMMAL			LCAL			LMTP5			LTOE			LMTP1			RPSIS			RASIS			RTH1			RTH2			RTH3			RTH4			RLFE			RMFE			RSH1			RSH2			RSH3			RSH4			RLMAL			RMMAL			RCAL			RMTP1			RTOE			RMTP5		
		X1	Y1	Z1	X2	Y2	Z2	X3	Y3	Z3	X4	Y4	Z4	X5	Y5	Z5	X6	Y6	Z6	X7	Y7	Z7	X8	Y8	Z8	X9	Y9	Z9	X10	Y10	Z10	X11	Y11	Z11	X12	Y12	Z12	X13	Y13	Z13	X14	Y14	Z14	X15	Y15	Z15	X16	Y16	Z16	X17	Y17	Z17	X18	Y18	Z18	X19	Y19	Z19	X20	Y20	Z20	X21	Y21	Z21	X22	Y22	Z22	X23	Y23	Z23	X24	Y24	Z24	X25	Y25	Z25	X26	Y26	Z26	X27	Y27	Z27	X28	Y28	Z28	X29	Y29	Z29	X30	Y30	Z30	X31	Y31	Z31	X32	Y32	Z32	X33	Y33	Z33	X34	Y34	Z34	X35	Y35	Z35	X36	Y36	Z36

575	4.78333	-1085.20471	1008.75305	336.56021	-1273.28564	952.69983	400.35492	-1193.04333	586.96802	427.71774	-1201.46155	545.39966	420.28461	-1256.73279	589.24695	412.28867	-1252.82373	547.09485	407.50998	-1226.19067	474.21005	399.29077	-1219.39050	469.58981	293.23392	-1163.56604	381.69427	417.95612	-1167.73804	335.58975	421.86877	-1224.75916	380.68484	405.98291	-1220.61316	339.17859	407.83942	-1148.75818	89.79148	372.54663	-1164.44226	100.39818	287.29468	-1082.82532	80.24789	323.18738	-1263.84338	42.25127	392.08499	-1302.67346	62.79518	334.66766	-1278.36279	53.19537	297.77255	-1082.61609	1029.47131	205.81255	-1257.85535	999.39575	149.41499	-1262.20190	614.20844	105.83949	-1282.22974	577.41565	108.10259	-1317.29846	638.15814	119.99454	-1330.99500	595.37238	116.82535	-1344.09753	481.26318	138.62242	-1338.78760	480.63635	227.69270	-1238.92908	363.65405	142.69360	-1213.33313	323.39337	142.51053	-1287.29626	327.57825	157.25932	-1254.58728	291.74994	150.80261	-1136.75513	208.96394	125.89503	-1143.44678	205.50772	211.24997	-1074.01953	221.60167	170.06892	-1229.78833	94.22889	209.33617	-1251.94641	96.38198	171.36221	-1225.57861	98.86234	120.96890
576	4.79167	-1094.42065	1008.54523	336.92673	-1282.73035	952.79297	400.12646	-1197.84509	587.35980	427.56796	-1205.58374	545.61700	420.28888	-1261.51514	588.59839	412.25851	-1257.08008	546.38239	407.61438	-1229.52576	473.80966	400.20703	-1222.98328	469.23016	293.48682	-1165.38806	382.02820	417.88190	-1169.22595	335.77228	421.77124	-1226.69775	380.48199	406.11911	-1222.17615	339.03601	408.06876	-1148.87415	89.87428	372.53799	-1164.38477	100.60138	287.42120	-1082.84448	80.45005	323.19168	-1263.87524	42.14388	392.08197	-1303.21021	62.62678	334.21442	-1278.46216	53.05595	297.78247	-1091.76160	1029.33057	206.12743	-1266.98376	999.66095	149.49736	-1273.50903	615.68170	105.90218	-1295.34485	578.50256	107.55039	-1329.55017	640.03046	119.59601	-1343.88672	597.34741	116.31784	-1358.26538	483.33923	137.86598	-1353.04004	482.50232	226.94655	-1259.13074	360.53983	142.23628	-1235.59082	319.10773	142.01917	-1309.34290	326.89459	156.73062	-1278.81714	289.17590	150.47949	-1164.94727	200.81030	125.73876	-1171.76917	197.79787	211.04597	-1101.93811	210.23653	170.04085	-1263.55591	90.87538	209.09386	-1285.70117	94.35488	171.08264	-1259.27698	95.34505	120.80856
577	4.80000	-1103.71533	1008.08813	337.30878	-1292.54272	952.82654	399.91922	-1202.66943	588.11572	427.17139	-1209.86804	545.83545	420.37192	-1266.37646	588.05292	412.00354	-1261.23547	545.85779	407.94937	-1232.32556	473.58847	400.35358	-1226.28418	468.56631	293.36148	-1167.48816	382.38229	417.91885	-1171.08325	336.11127	421.76694	-1228.78589	380.29550	406.39752	-1223.77148	338.86472	408.32007	-1149.13684	89.91944	372.62860	-1164.38647	100.74796	287.57065	-1083.01379	80.61436	323.28625	-1264.00342	42.00064	392.13107	-1303.43420	62.35821	334.32608	-1278.54236	52.91484	297.79916	-1100.76868	1028.90076	206.52730	-1275.98364	999.71686	149.44888	-1285.43115	616.50891	105.46178	-1307.21936	579.64978	107.33070	-1341.32214	641.29688	119.06149	-1356.10742	598.76367	115.72472	-1371.61169	484.83524	137.02052	-1366.66760	483.81393	226.11395	-1279.11267	357.00562	141.60452	-1257.98206	314.37912	141.56653	-1331.01404	325.90869	156.12868	-1302.43616	286.81274	149.95900	-1193.48315	192.44493	125.47279	-1200.55493	189.91676	210.82265	-1130.09265	198.64903	169.84048	-1297.85620	88.04696	209.05986	-1319.70898	92.62964	170.86331	-1293.24194	92.08588	120.50539
578	4.80833	-1113.04688	1007.48389	337.71924	-1302.11731	952.59119	399.65219	-1207.73767	588.45844	427.06644	-1214.07874	546.05518	420.52536	-1271.31763	587.38892	412.16589	-1265.49280	545.14124	408.18341	-1235.54663	473.46323	400.46869	-1229.65308	468.16571	293.39737	-1168.78210	382.91852	417.85220	-1172.74170	336.46066	421.93170	-1230.86975	380.09082	406.74716	-1225.64075	338.67300	408.71033	-1149.33411	89.94849	372.76297	-1164.58765	100.94077	287.73206	-1083.27893	80.73029	323.45276	-1264.08630	41.85092	392.19858	-1303.68408	62.07831	334.40863	-1279.71350	53.52206	297.36719	-1109.79529	1028.40808	206.87796	-1284.89685	999.63037	149.26555	-1297.06165	617.00183	104.92062	-1319.37061	580.30450	106.36179	-1352.81860	642.20740	118.54142	-1367.83765	599.69110	115.04051	-1384.24316	485.76440	136.08751	-1379.23608	484.59744	225.15482	-1298.73560	353.01239	140.59291	-1279.95142	309.30063	140.69534	-1352.07166	325.11160	155.67383	-1326.02966	284.21783	149.43739	-1222.32434	183.96434	125.20370	-1229.35168	182.10512	210.44778	-1158.71167	186.78667	169.69562	-1332.88281	86.51636	209.75090	-1354.13379	91.93283	170.92865	-1327.47534	89.48592	120.38804
579	4.81667	-1122.18323	1006.78949	337.94354	-1311.55579	952.20233	399.42966	-1212.80786	588.73926	427.07135	-1218.34399	546.22876	420.67038	-1276.33374	586.59320	412.35080	-1269.85291	544.40070	408.44440	-1238.39514	473.01578	400.85303	-1233.14429	467.78287	293.51434	-1171.67432	383.14700	418.06979	-1174.51282	336.80722	422.10898	-1233.05115	379.84558	407.10779	-1227.46655	338.53970	409.11420	-1149.49841	90.00945	372.94333	-1164.96484	100.89597	287.76788	-1083.32874	80.96587	323.61588	-1264.12708	41.69409	392.26074	-1303.60327	61.67576	334.49042	-1280.32776	53.59165	297.70865	-1118.91418	1027.69250	207.13722	-1294.13721	999.40546	149.14403	-1308.05737	617.11188	104.35056	-1330.65479	580.42010	105.70180	-1363.68054	642.48517	117.97335	-1378.97046	600.05652	114.37264	-1396.03772	486.15378	135.08543	-1391.20264	484.83365	224.12859	-1318.22217	348.79926	139.95833	-1301.98792	303.98816	140.08452	-1373.26001	323.81509	154.90334	-1349.47412	281.79465	148.96159	-1251.30884	175.53345	124.78478	-1259.24341	174.56761	210.76709	-1187.75720	174.91454	169.32291	-1367.36609	84.39323	210.07175	-1388.31360	91.26955	170.59058	-1361.82642	86.94889	119.96633
